<svg width="24" height="24" viewBox="0 0 24 24" fill="none" xmlns="http://www.w3.org/2000/svg">
<path d="M0 2C0 0.89543 0.895431 0 2 0H22C23.1046 0 24 0.895431 24 2V22C24 23.1046 23.1046 24 22 24H2C0.89543 24 0 23.1046 0 22V2Z" fill="none"/>
<path fill-rule="evenodd" clip-rule="evenodd" d="M6.26855 2.5C5.01566 2.5 4 3.51566 4 4.76855V19.2315C4 20.4843 5.01566 21.5 6.26855 21.5H17.7315C18.9843 21.5 20 20.4843 20 19.2315V4.76855C20 3.51566 18.9843 2.5 17.7315 2.5H6.26855ZM8.62219 3.3H17.7315C18.5425 3.3 19.2 3.95749 19.2 4.76855V16.8437C18.5304 16.0071 17.5007 15.4713 16.3458 15.4713H10.0958V6.30952C10.0958 5.08588 9.51886 3.99698 8.62219 3.3ZM6.28625 3.3H6.26855C5.45749 3.3 4.8 3.95749 4.8 4.76855V19.2315C4.8 20.0425 5.45749 20.7 6.26855 20.7H17.7315C18.5425 20.7 19.2 20.0425 19.2 19.2315V19.1251H13.1773C11.4341 19.1251 9.97607 17.9044 9.61128 16.2713C9.59002 16.1761 9.57248 16.0795 9.5588 15.9817C9.47011 15.9692 9.3824 15.9536 9.29578 15.9351C7.57594 15.5675 6.28625 14.0392 6.28625 12.2097V3.3ZM9.29578 15.1117V6.30952C9.29578 4.92441 8.36005 3.75785 7.08625 3.40749V12.2097C7.08625 13.5948 8.02198 14.7614 9.29578 15.1117ZM16.6889 16.2917C16.5764 16.2782 16.4619 16.2713 16.3458 16.2713H16.238L15.9093 17.217C15.8368 17.4257 15.6075 17.5403 15.397 17.473C15.1866 17.4057 15.0748 17.182 15.1473 16.9734L15.3913 16.2713H14.8747L14.5461 17.217C14.4735 17.4257 14.2442 17.5403 14.0337 17.473C13.8233 17.4057 13.7115 17.182 13.7841 16.9734L14.0281 16.2713H13.5134L13.4256 16.524C13.3531 16.7327 13.1237 16.8473 12.9133 16.78C12.7028 16.7127 12.5911 16.489 12.6636 16.2804L12.6667 16.2713H10.4371C10.783 17.458 11.8789 18.3251 13.1773 18.3251H19.086C18.8458 17.501 18.2439 16.831 17.4637 16.4986L17.214 17.217C17.1415 17.4257 16.9121 17.5403 16.7017 17.473C16.4913 17.4057 16.3795 17.182 16.452 16.9734L16.6889 16.2917Z" fill="#0D0D0D"/>
</svg>
