<svg width="38" height="48" viewBox="0 0 38 48" fill="none" xmlns="http://www.w3.org/2000/svg">
<path id="Union" fill-rule="evenodd" clip-rule="evenodd" d="M10.197 1.83334H32.5714C34.82 1.83334 36.6429 3.65618 36.6429 5.90477V36.8744C35.3973 34.8699 33.3898 33.3881 31.0251 32.8338L31.0229 32.8331L31.0229 32.8333C30.3579 32.6776 29.6648 32.5953 28.9524 32.5953H14.4762V9.52387C14.4762 6.27696 12.7659 3.42952 10.197 1.83334ZM30.5915 34.1275C30.0727 34.0149 29.5345 33.9546 28.9826 33.9525L28.0224 36.8329C27.9039 37.1885 27.5196 37.3806 27.1641 37.2621C26.8086 37.1436 26.6164 36.7593 26.7349 36.4038L27.5521 33.9524H25.7466L24.7864 36.8329C24.6679 37.1885 24.2836 37.3806 23.9281 37.2621C23.5726 37.1436 23.3804 36.7593 23.4989 36.4038L24.316 33.9524H22.5106L22.1226 35.1163C22.0041 35.4718 21.6198 35.6639 21.2643 35.5454C20.9088 35.4269 20.7166 35.0426 20.8351 34.6871L21.08 33.9524H14.5956C15.2366 37.5525 18.3824 40.2858 22.1667 40.2858H36.5235C36.0585 37.6744 34.2756 35.5191 31.8871 34.5322L31.1202 36.8329C31.0017 37.1885 30.6174 37.3806 30.2619 37.2621C29.9063 37.1436 29.7142 36.7593 29.8327 36.4038L30.5915 34.1275ZM5.42857 1.83334C3.17998 1.83334 1.35714 3.65618 1.35714 5.90477V42.0952C1.35714 44.3438 3.17998 46.1667 5.42857 46.1667H32.5714C34.82 46.1667 36.6429 44.3438 36.6429 42.0952V41.6429H22.1667C17.6311 41.6429 13.875 38.3055 13.2202 33.9524C13.2157 33.9231 13.2115 33.8936 13.2073 33.8642C13.1779 33.86 13.1484 33.8557 13.119 33.8513C8.766 33.1965 5.42857 29.4404 5.42857 24.9048V1.83339L5.42857 1.83334ZM38 41.6429V5.90477C38 2.90665 35.5695 0.476196 32.5714 0.476196H5.42857C2.43045 0.476196 0 2.90665 0 5.90477V42.0952C0 45.0934 2.43046 47.5238 5.42857 47.5238H32.5714C35.5695 47.5238 38 45.0934 38 42.0952V41.6429ZM13.119 32.4759V9.52387C13.119 5.73962 10.3858 2.59375 6.78571 1.95276V24.9048C6.78571 28.6891 9.51898 31.8349 13.119 32.4759Z" fill="white"/>
</svg>
