<svg width="48" height="48" viewBox="0 0 48 48" fill="none" xmlns="http://www.w3.org/2000/svg">
<g id="Others/local-two">
<g id="Vector">
<path d="M7.5 19C7.5 9.88727 14.8873 2.5 24 2.5C33.1127 2.5 40.5 9.88727 40.5 19C40.5 26.0316 36.4731 32.6233 32.6651 37.3197C30.7381 39.6963 28.8148 41.6514 27.3737 43.0124C26.6522 43.6938 26.0492 44.2286 25.6238 44.5952C25.4111 44.7786 25.2426 44.92 25.1257 45.0169C25.0673 45.0654 25.0217 45.1027 24.99 45.1285L24.9528 45.1586L24.9422 45.1672L24.9389 45.1698C24.9389 45.1698 24.937 45.1713 24 44C23.063 45.1713 23.0622 45.1707 23.0622 45.1707L23.0578 45.1672L23.0472 45.1586L23.01 45.1285C22.9783 45.1027 22.9327 45.0654 22.8743 45.0169C22.7574 44.92 22.5889 44.7786 22.3762 44.5952C21.9508 44.2286 21.3478 43.6938 20.6263 43.0124C19.1852 41.6514 17.2619 39.6963 15.3349 37.3197C11.5269 32.6233 7.5 26.0316 7.5 19ZM24 44L23.0622 45.1707C23.61 45.6089 24.3892 45.6096 24.937 45.1713L24 44ZM24 42.031C24.3576 41.7162 24.8035 41.3133 25.3138 40.8314C26.6852 39.5361 28.5119 37.6787 30.3349 35.4303C34.0269 30.8767 37.5 24.9684 37.5 19C37.5 11.5441 31.4559 5.5 24 5.5C16.5441 5.5 10.5 11.5441 10.5 19C10.5 24.9684 13.9731 30.8767 17.6651 35.4303C19.4881 37.6787 21.3148 39.5361 22.6862 40.8314C23.1965 41.3133 23.6424 41.7162 24 42.031Z" fill="#262626"/>
<path d="M16.5 19C16.5 14.8579 19.8579 11.5 24 11.5C28.1421 11.5 31.5 14.8579 31.5 19C31.5 23.1421 28.1421 26.5 24 26.5C19.8579 26.5 16.5 23.1421 16.5 19ZM24 14.5C21.5147 14.5 19.5 16.5147 19.5 19C19.5 21.4853 21.5147 23.5 24 23.5C26.4853 23.5 28.5 21.4853 28.5 19C28.5 16.5147 26.4853 14.5 24 14.5Z" fill="#262626"/>
</g>
</g>
</svg>
