<svg width="48" height="48" viewBox="0 0 48 48" fill="none" xmlns="http://www.w3.org/2000/svg">
<g id="Base/mail">
<g id="Vector">
<path fill-rule="evenodd" clip-rule="evenodd" d="M2.5 9C2.5 8.17157 3.17157 7.5 4 7.5H44C44.8284 7.5 45.5 8.17157 45.5 9V39C45.5 39.8284 44.8284 40.5 44 40.5H4C3.17157 40.5 2.5 39.8284 2.5 39V9ZM5.5 10.5V37.5H42.5V10.5H5.5Z" fill="#262626"/>
<path fill-rule="evenodd" clip-rule="evenodd" d="M2.80009 8.10009C3.29714 7.43735 4.23735 7.30303 4.90009 7.80009L24.0001 22.1251L43.1001 7.80009C43.7628 7.30303 44.703 7.43735 45.2001 8.10009C45.6971 8.76283 45.5628 9.70303 44.9001 10.2001L24.9001 25.2001C24.3668 25.6001 23.6334 25.6001 23.1001 25.2001L3.10009 10.2001C2.43735 9.70303 2.30303 8.76283 2.80009 8.10009Z" fill="#262626"/>
<path fill-rule="evenodd" clip-rule="evenodd" d="M2.5 9C2.5 8.17157 3.17157 7.5 4 7.5H24C24.8284 7.5 25.5 8.17157 25.5 9C25.5 9.82843 24.8284 10.5 24 10.5H5.5V24C5.5 24.8284 4.82843 25.5 4 25.5C3.17157 25.5 2.5 24.8284 2.5 24V9Z" fill="#262626"/>
<path fill-rule="evenodd" clip-rule="evenodd" d="M22.5 9C22.5 8.17157 23.1716 7.5 24 7.5H44C44.8284 7.5 45.5 8.17157 45.5 9V24C45.5 24.8284 44.8284 25.5 44 25.5C43.1716 25.5 42.5 24.8284 42.5 24V10.5H24C23.1716 10.5 22.5 9.82843 22.5 9Z" fill="#262626"/>
</g>
</g>
</svg>
