<svg width="48" height="48" viewBox="0 0 48 48" fill="none" xmlns="http://www.w3.org/2000/svg">
<g id="Base/phone-telephone">
<path id="Vector (Stroke)" d="M11.7184 9.43919C10.1058 9.43919 9.09994 10.8842 9.56061 12.2495C11.2124 17.1447 14.2904 24.5089 18.8808 29.0992C23.4711 33.6896 30.8352 36.7676 35.7306 38.4193C37.0957 38.88 38.5408 37.8742 38.5408 36.2616V31.2909C38.5408 31.113 38.4444 30.9492 38.2891 30.8628L33.9592 28.4556C33.8178 28.3769 33.6468 28.3732 33.5022 28.4455L28.8847 30.7542C28.5959 30.8986 28.2677 30.9439 27.9507 30.8831L28.2275 29.4398C27.9507 30.8831 27.9507 30.8831 27.9507 30.8831L27.9464 30.8823L27.9409 30.8812L27.9262 30.8782L27.8818 30.869C27.8459 30.8613 27.7971 30.8505 27.7367 30.8363C27.6158 30.8077 27.4477 30.765 27.2404 30.7052C26.8267 30.5858 26.2533 30.3968 25.5869 30.1129C24.26 29.5474 22.5278 28.5896 20.9591 27.0209C19.3906 25.4524 18.4301 23.7178 17.862 22.3889C17.5767 21.7215 17.3863 21.1471 17.2658 20.7326C17.2054 20.525 17.1623 20.3566 17.1334 20.2356C17.119 20.1751 17.1081 20.1263 17.1003 20.0903L17.091 20.046L17.088 20.0313L17.0869 20.0258L17.0864 20.0236C17.0864 20.0236 17.0861 20.0216 18.5286 19.741L17.0864 20.0236C17.0246 19.7054 17.0692 19.3737 17.2142 19.0838L19.5232 14.4657C19.5955 14.3212 19.5919 14.1502 19.5134 14.0088L17.1166 9.69141C17.0302 9.53567 16.8661 9.43919 16.6883 9.43919H11.7184ZM20.0874 19.9096L20.0881 19.9121C20.1806 20.2301 20.3325 20.6908 20.5645 21.2335C21.0311 22.3249 21.8054 23.7106 23.0374 24.9425M23.0374 24.9425C24.2692 26.1743 25.6517 26.9455 26.7392 27.409C27.2801 27.6395 27.7389 27.7899 28.0555 27.8813L32.1875 25.8167C33.2003 25.3103 34.3978 25.3365 35.3874 25.8867L39.717 28.2938C40.8053 28.8988 41.48 30.046 41.48 31.2909V36.2616C41.48 39.7115 38.2226 42.3623 34.7909 41.2043C29.8341 39.5318 21.9053 36.2804 16.8025 31.1775C11.6996 26.0747 8.44818 18.1459 6.77568 13.1892C5.61779 9.75748 8.26842 6.5 11.7184 6.5H16.6883C17.934 6.5 19.0816 7.17569 19.6863 8.2646L22.0831 12.5822C22.6323 13.5714 22.6582 14.768 22.1521 15.7802L20.0874 19.9096" fill="#262626"/>
</g>
</svg>
