<svg width="48" height="48" viewBox="0 0 48 48" fill="none" xmlns="http://www.w3.org/2000/svg">
<g id="Time/time">
<g id="Vector">
<path fill-rule="evenodd" clip-rule="evenodd" d="M2.5 24C2.5 12.1259 12.1259 2.5 24 2.5C35.8741 2.5 45.5 12.1259 45.5 24C45.5 35.8741 35.8741 45.5 24 45.5C12.1259 45.5 2.5 35.8741 2.5 24ZM24 5.5C13.7827 5.5 5.5 13.7827 5.5 24C5.5 34.2173 13.7827 42.5 24 42.5C34.2173 42.5 42.5 34.2173 42.5 24C42.5 13.7827 34.2173 5.5 24 5.5Z" fill="#262626"/>
<path fill-rule="evenodd" clip-rule="evenodd" d="M24.0082 10.5C24.8366 10.5001 25.5081 11.1717 25.508 12.0001L25.5069 23.3875L33.5469 31.4275C34.1327 32.0133 34.1327 32.9631 33.5469 33.5489C32.9611 34.1346 32.0114 34.1346 31.4256 33.5489L22.9462 25.0695C22.6648 24.7881 22.5068 24.4065 22.5068 24.0087L22.508 11.9999C22.5081 11.1714 23.1798 10.4999 24.0082 10.5Z" fill="#262626"/>
</g>
</g>
</svg>
