<svg width="70" height="70" viewBox="0 0 70 70" fill="none" xmlns="http://www.w3.org/2000/svg">
<rect width="70" height="70" rx="35" fill="#FAC11C"/>
<path d="M17.9792 20.75C17.9792 20.0942 18.5108 19.5625 19.1667 19.5625H50.8334C51.4892 19.5625 52.0209 20.0942 52.0209 20.75V44.5C52.0209 45.1558 51.4892 45.6875 50.8334 45.6875H34.4887L26.8228 49.5205C26.4546 49.7045 26.0175 49.6849 25.6674 49.4685C25.3173 49.2521 25.1042 48.8699 25.1042 48.4583V45.6875H19.1667C18.5108 45.6875 17.9792 45.1558 17.9792 44.5V20.75ZM20.3542 21.9375V43.3125H26.2917C26.9475 43.3125 27.4792 43.8442 27.4792 44.5V46.5369L33.6773 43.4379C33.8422 43.3554 34.024 43.3125 34.2084 43.3125H49.6459V21.9375H20.3542Z" fill="#1F2D3A"/>
<path d="M27.0834 30.25C27.7392 30.25 28.2709 30.7817 28.2709 31.4375V33.8125C28.2709 34.4683 27.7392 35 27.0834 35C26.4275 35 25.8959 34.4683 25.8959 33.8125V31.4375C25.8959 30.7817 26.4275 30.25 27.0834 30.25Z" fill="#1F2D3A"/>
<path d="M35 30.25C35.6559 30.25 36.1875 30.7817 36.1875 31.4375V33.8125C36.1875 34.4683 35.6559 35 35 35C34.3442 35 33.8125 34.4683 33.8125 33.8125V31.4375C33.8125 30.7817 34.3442 30.25 35 30.25Z" fill="#1F2D3A"/>
<path d="M42.9167 30.25C43.5725 30.25 44.1042 30.7817 44.1042 31.4375V33.8125C44.1042 34.4683 43.5725 35 42.9167 35C42.2608 35 41.7292 34.4683 41.7292 33.8125V31.4375C41.7292 30.7817 42.2608 30.25 42.9167 30.25Z" fill="#1F2D3A"/>
</svg>
