<svg width="70" height="70" viewBox="0 0 70 70" fill="none" xmlns="http://www.w3.org/2000/svg">
<rect width="70" height="70" rx="35" fill="#0088CC"/>
<path d="M47.4153 21.7863C47.4153 21.7863 50.4911 20.5869 50.2348 23.4997C50.1494 24.6991 49.3804 28.8969 48.7823 33.4374L46.7318 46.8876C46.7318 46.8876 46.5609 48.858 45.0229 49.2007C43.485 49.5433 41.1781 48.0013 40.7509 47.6586C40.4091 47.4016 34.3429 43.5464 32.2068 41.6617C31.6087 41.1477 30.9252 40.1196 32.2922 38.9202L41.2636 30.3533C42.2888 29.3252 43.3141 26.9265 39.0421 29.8393L27.0804 37.9779C27.0804 37.9779 25.7133 38.8346 23.1501 38.0636L17.5965 36.3502C17.5965 36.3502 15.5459 35.0651 19.049 33.78C27.5931 29.7535 38.1023 25.6414 47.4153 21.7863Z" fill="white"/>
</svg>
