<svg width="70" height="70" viewBox="0 0 70 70" fill="none" xmlns="http://www.w3.org/2000/svg">
<rect width="70" height="70" rx="35" fill="#00D95F"/>
<path d="M17.5141 52.5156L20.0253 43.1784C18.0001 39.5411 17.3567 35.2967 18.2131 31.2241C19.0695 27.1514 21.3683 23.5236 24.6877 21.0065C28.007 18.4894 32.1243 17.2517 36.284 17.5206C40.4436 17.7895 44.3666 19.5469 47.3331 22.4704C50.2996 25.3939 52.1106 29.2873 52.4337 33.4363C52.7568 37.5852 51.5705 41.7113 49.0924 45.0575C46.6142 48.4036 43.0105 50.7454 38.9425 51.653C34.8745 52.5607 30.6151 51.9733 26.9459 49.9987L17.5141 52.5156ZM27.4006 46.5047L27.9839 46.8501C30.6416 48.4228 33.7457 49.0736 36.8126 48.7011C39.8795 48.3286 42.7368 46.9537 44.9393 44.7908C47.1417 42.6278 48.5656 39.7982 48.9891 36.743C49.4126 33.6877 48.8118 30.5785 47.2804 27.8997C45.749 25.2209 43.3731 23.1231 40.5227 21.9331C37.6724 20.7432 34.508 20.528 31.5223 21.3211C28.5367 22.1142 25.8978 23.871 24.0167 26.3178C22.1356 28.7645 21.1181 31.7637 21.1227 34.848C21.1202 37.4055 21.8286 39.9134 23.1692 42.0927L23.535 42.6948L22.1311 47.9062L27.4006 46.5047Z" fill="white"/>
<path fill-rule="evenodd" clip-rule="evenodd" d="M42.1246 37.4365C41.753 37.1378 41.3179 36.9276 40.8525 36.8218C40.3871 36.7161 39.9037 36.7176 39.4389 36.8262C38.7407 37.1153 38.2894 38.2073 37.8383 38.7534C37.7432 38.8843 37.6033 38.9761 37.4451 39.0116C37.2868 39.0471 37.1211 39.0238 36.9789 38.9461C34.4225 37.9483 32.2797 36.1182 30.8986 33.7534C30.7807 33.6059 30.725 33.4184 30.743 33.2308C30.7611 33.043 30.8515 32.8696 30.9952 32.747C31.4985 32.2505 31.868 31.6355 32.0695 30.959C32.1143 30.2128 31.9427 29.4695 31.5754 28.8176C31.2914 27.9039 30.7508 27.0903 30.0177 26.4729C29.6396 26.3034 29.2202 26.2466 28.8104 26.3093C28.4007 26.372 28.0178 26.5515 27.708 26.8262C27.1703 27.2886 26.7436 27.8653 26.4591 28.5138C26.1746 29.1624 26.0398 29.8662 26.0645 30.5735C26.066 30.9708 26.1166 31.3663 26.2148 31.7513C26.4643 32.6762 26.8479 33.5599 27.3535 34.3744C27.7183 34.9983 28.1164 35.6023 28.5459 36.1838C29.942 38.0939 31.6968 39.7156 33.7131 40.959C34.7249 41.5908 35.8063 42.1046 36.9359 42.49C38.1093 43.0201 39.4049 43.2236 40.685 43.0788C41.4144 42.9689 42.1055 42.6818 42.6974 42.2431C43.2894 41.8044 43.7641 41.2273 44.0797 40.5628C44.2651 40.1614 44.3215 39.7126 44.2408 39.2781C44.0475 38.3894 42.855 37.8648 42.1246 37.4365Z" fill="white"/>
</svg>
