<svg width="60" height="60" viewBox="0 0 60 60" fill="none" xmlns="http://www.w3.org/2000/svg">
<g id="Time/speed-one">
<g id="Vector">
<path fill-rule="evenodd" clip-rule="evenodd" d="M39.6389 24.1002L37.8719 23.4733L37.1836 21.7291C37.8673 21.4593 38.6456 21.6139 39.1743 22.1245C39.7031 22.6351 39.8847 23.4075 39.6389 24.1002ZM23.5447 38.3097C20.8132 35.6721 20.7372 31.3197 23.3749 28.5884C23.7734 28.1757 24.3115 27.7936 24.8349 27.4615C25.3842 27.1131 26.0288 26.7509 26.7153 26.3902C28.0897 25.6682 29.7151 24.9093 31.2547 24.2241C32.799 23.5369 34.2795 22.9139 35.3725 22.4632C35.9195 22.2377 36.3706 22.0548 36.6857 21.928C36.8433 21.8646 36.9669 21.8152 37.0516 21.7815L37.1487 21.7429L37.1836 21.7291C37.1838 21.7291 37.1836 21.7291 37.8719 23.4733C39.6389 24.1002 39.639 24.1 39.6389 24.1002L39.6264 24.1356L39.5912 24.234C39.5604 24.3198 39.5154 24.445 39.4575 24.6047C39.3418 24.9241 39.1748 25.3813 38.9685 25.9359C38.5563 27.0439 37.9853 28.5452 37.3524 30.1125C36.7214 31.6751 36.0196 33.326 35.3461 34.7247C35.0096 35.4235 34.6701 36.0803 34.3411 36.6414C34.0275 37.176 33.6644 37.7272 33.2659 38.1398C30.6283 40.8712 26.276 40.9472 23.5447 38.3097ZM34.6095 26.8515C34.0247 27.1021 33.407 27.3709 32.7794 27.6502C31.2718 28.3211 29.73 29.0425 28.4593 29.71C27.8233 30.0441 27.2758 30.354 26.8438 30.6281C26.3859 30.9186 26.1534 31.1094 26.0724 31.1934C24.8735 32.4348 24.908 34.4132 26.1496 35.6121C27.391 36.811 29.3694 36.7765 30.5683 35.5349C30.6494 35.451 30.832 35.212 31.1063 34.7443C31.3652 34.3029 31.6557 33.745 31.9674 33.0977C32.5902 31.8045 33.2573 30.2385 33.8752 28.7083C34.1324 28.0714 34.3795 27.4447 34.6095 26.8515Z" fill="#FAC11C"/>
<path fill-rule="evenodd" clip-rule="evenodd" d="M1.875 30C1.875 14.467 14.467 1.875 30 1.875C45.533 1.875 58.125 14.467 58.125 30C58.125 37.766 54.975 44.7998 49.8873 49.8873C49.1551 50.6196 47.9679 50.6195 47.2357 49.8873C46.5034 49.1551 46.5035 47.9679 47.2357 47.2357C51.6488 42.8227 54.375 36.7315 54.375 30C54.375 16.538 43.462 5.625 30 5.625C16.538 5.625 5.625 16.538 5.625 30C5.625 36.7315 8.35122 42.8227 12.7643 47.2357C13.4965 47.9679 13.4965 49.1551 12.7643 49.8873C12.0321 50.6196 10.8449 50.6196 10.1126 49.8873C5.02506 44.7998 1.875 37.766 1.875 30Z" fill="#FAC11C"/>
<path fill-rule="evenodd" clip-rule="evenodd" d="M30 3.125C31.0355 3.125 31.875 3.96447 31.875 5V10C31.875 11.0355 31.0355 11.875 30 11.875C28.9645 11.875 28.125 11.0355 28.125 10V5C28.125 3.96447 28.9645 3.125 30 3.125Z" fill="#FAC11C"/>
<path fill-rule="evenodd" clip-rule="evenodd" d="M50.0134 12.7477C50.6651 13.5525 50.5409 14.7332 49.7362 15.3848L45.8504 18.5313C45.0456 19.183 43.865 19.0589 43.2133 18.2541C42.5616 17.4493 42.6858 16.2687 43.4905 15.617L47.3763 12.4705C48.181 11.8188 49.3617 11.943 50.0134 12.7477Z" fill="#FAC11C"/>
<path fill-rule="evenodd" clip-rule="evenodd" d="M46.4547 32.4944C46.6877 31.4854 47.6945 30.8563 48.7035 31.0893L53.5752 32.214C54.5842 32.447 55.2133 33.4538 54.9804 34.4628C54.7474 35.4717 53.7406 36.1009 52.7316 35.8679L47.8599 34.7432C46.8509 34.5102 46.2218 33.5034 46.4547 32.4944Z" fill="#FAC11C"/>
<path fill-rule="evenodd" clip-rule="evenodd" d="M13.5461 32.4944C13.7791 33.5034 13.15 34.5102 12.141 34.7432L7.26912 35.8679C6.26013 36.1009 5.25334 35.4717 5.0204 34.4627C4.78745 33.4538 5.41656 32.447 6.42556 32.214L11.2974 31.0893C12.3064 30.8563 13.3132 31.4854 13.5461 32.4944Z" fill="#FAC11C"/>
<path fill-rule="evenodd" clip-rule="evenodd" d="M9.98577 12.7477C10.6374 11.9429 11.8181 11.8188 12.6229 12.4705L16.5086 15.617C17.3134 16.2687 17.4375 17.4494 16.7858 18.2541C16.1341 19.0589 14.9535 19.183 14.1487 18.5313L10.263 15.3848C9.45821 14.7332 9.3341 13.5525 9.98577 12.7477Z" fill="#FAC11C"/>
</g>
</g>
</svg>
