<svg xmlns="http://www.w3.org/2000/svg" width="60" height="60" viewBox="0 0 60 60" fill="none">
  <path fill-rule="evenodd" clip-rule="evenodd" d="M28.8947 3.48519C29.5531 3.00494 30.4463 3.00494 31.1047 3.48519L37.1759 7.91389L44.6907 7.89958C45.5057 7.89803 46.2283 8.42304 46.4786 9.19856L48.7873 16.3501L54.8753 20.7556C55.5355 21.2334 55.8115 22.0829 55.5582 22.8574L53.2224 30L55.5582 37.1426C55.8115 37.9171 55.5355 38.7666 54.8753 39.2444L48.7873 43.6499L46.4786 50.8014C46.2283 51.5769 45.5057 52.1019 44.6908 52.1004L37.1759 52.0862L31.1047 56.5148C30.4463 56.9951 29.5531 56.9951 28.8947 56.5148L22.8235 52.0862L15.3086 52.1004C14.4937 52.1019 13.7711 51.5769 13.5207 50.8014L11.2121 43.6499L5.12407 39.2444C4.46386 38.7666 4.18785 37.9171 4.44115 37.1426L6.77697 30L4.44115 22.8574C4.18785 22.0829 4.46386 21.2334 5.12407 20.7556L11.2121 16.3501L13.5207 9.19856C13.7711 8.42304 14.4937 7.89803 15.3086 7.89958L22.8235 7.91389L28.8947 3.48519ZM29.9997 7.32084L24.538 11.3049C24.2162 11.5396 23.8279 11.6658 23.4295 11.665L16.6692 11.6522L14.5924 18.0856C14.47 18.4648 14.23 18.7951 13.9073 19.0286L8.43053 22.9918L10.5318 29.4172C10.6556 29.7959 10.6556 30.2041 10.5318 30.5828L8.43053 37.0082L13.9073 40.9714C14.23 41.2049 14.47 41.5352 14.5924 41.9144L16.6692 48.3478L23.4295 48.335C23.8279 48.3343 24.2162 48.4604 24.538 48.6952L29.9997 52.6792L35.4613 48.6952C35.7832 48.4604 36.1715 48.3343 36.5699 48.335L43.3302 48.3478L45.407 41.9144C45.5294 41.5352 45.7693 41.2049 46.0921 40.9714L51.5688 37.0082L49.4676 30.5828C49.3437 30.2041 49.3437 29.7959 49.4676 29.4172L51.5688 22.9918L46.0921 19.0286C45.7693 18.7951 45.5294 18.4648 45.407 18.0856L43.3302 11.6522L36.5699 11.665C36.1715 11.6658 35.7832 11.5396 35.4613 11.3049L29.9997 7.32084Z" fill="#FAC11C"/>
  <path fill-rule="evenodd" clip-rule="evenodd" d="M41.3258 22.4242C42.0581 23.1564 42.0581 24.3436 41.3258 25.0758L28.8258 37.5758C28.0936 38.3081 26.9064 38.3081 26.1742 37.5758L19.9242 31.3258C19.1919 30.5936 19.1919 29.4064 19.9242 28.6742C20.6564 27.9419 21.8436 27.9419 22.5758 28.6742L27.5 33.5983L38.6742 22.4242C39.4064 21.6919 40.5936 21.6919 41.3258 22.4242Z" fill="#FAC11C"/>
</svg>