<svg xmlns="http://www.w3.org/2000/svg" width="60" height="60" viewBox="0 0 60 60" fill="none">
  <path d="M17.5 31.875C15.0838 31.875 13.125 33.8338 13.125 36.25C13.125 38.6662 15.0838 40.625 17.5 40.625C19.9162 40.625 21.875 38.6662 21.875 36.25C21.875 33.8338 19.9162 31.875 17.5 31.875ZM9.375 36.25C9.375 31.7627 13.0127 28.125 17.5 28.125C21.9873 28.125 25.625 31.7627 25.625 36.25C25.625 40.7373 21.9873 44.375 17.5 44.375C13.0127 44.375 9.375 40.7373 9.375 36.25Z" fill="#FAC11C"/>
  <path d="M42.5 31.875C40.0838 31.875 38.125 33.8338 38.125 36.25C38.125 38.6662 40.0838 40.625 42.5 40.625C44.9162 40.625 46.875 38.6662 46.875 36.25C46.875 33.8338 44.9162 31.875 42.5 31.875ZM34.375 36.25C34.375 31.7627 38.0127 28.125 42.5 28.125C46.9873 28.125 50.625 31.7627 50.625 36.25C50.625 40.7373 46.9873 44.375 42.5 44.375C38.0127 44.375 34.375 40.7373 34.375 36.25Z" fill="#FAC11C"/>
  <path d="M30 6.875C27.5838 6.875 25.625 8.83375 25.625 11.25C25.625 13.6662 27.5838 15.625 30 15.625C32.4162 15.625 34.375 13.6662 34.375 11.25C34.375 8.83375 32.4162 6.875 30 6.875ZM21.875 11.25C21.875 6.76269 25.5127 3.125 30 3.125C34.4873 3.125 38.125 6.76269 38.125 11.25C38.125 15.7373 34.4873 19.375 30 19.375C25.5127 19.375 21.875 15.7373 21.875 11.25Z" fill="#FAC11C"/>
  <path d="M3.125 55C3.125 47.061 9.5609 40.625 17.5 40.625C25.439 40.625 31.875 47.061 31.875 55C31.875 56.0355 31.0355 56.875 30 56.875C28.9645 56.875 28.125 56.0355 28.125 55C28.125 49.132 23.368 44.375 17.5 44.375C11.632 44.375 6.875 49.132 6.875 55C6.875 56.0355 6.03553 56.875 5 56.875C3.96447 56.875 3.125 56.0355 3.125 55Z" fill="#FAC11C"/>
  <path d="M28.125 55C28.125 47.061 34.561 40.625 42.5 40.625C50.439 40.625 56.875 47.061 56.875 55C56.875 56.0355 56.0355 56.875 55 56.875C53.9645 56.875 53.125 56.0355 53.125 55C53.125 49.132 48.368 44.375 42.5 44.375C36.632 44.375 31.875 49.132 31.875 55C31.875 56.0355 31.0355 56.875 30 56.875C28.9645 56.875 28.125 56.0355 28.125 55Z" fill="#FAC11C"/>
  <path d="M15.625 30C15.625 22.061 22.061 15.625 30 15.625C37.939 15.625 44.375 22.061 44.375 30C44.375 31.0355 43.5355 31.875 42.5 31.875C41.4645 31.875 40.625 31.0355 40.625 30C40.625 24.132 35.868 19.375 30 19.375C24.132 19.375 19.375 24.132 19.375 30C19.375 31.0355 18.5355 31.875 17.5 31.875C16.4645 31.875 15.625 31.0355 15.625 30Z" fill="#FAC11C"/>
</svg>