<svg width="24" height="24" viewBox="0 0 24 24" fill="none" xmlns="http://www.w3.org/2000/svg">
<g id="Others/local-pin">
<g id="Vector">
<path d="M7.25 6C7.25 3.37665 9.37664 1.25 12 1.25C14.6234 1.25 16.75 3.37665 16.75 6C16.75 8.62336 14.6234 10.75 12 10.75C9.37664 10.75 7.25 8.62336 7.25 6ZM12 2.75C10.2051 2.75 8.75 4.20507 8.75 6C8.75 7.79494 10.2051 9.25 12 9.25C13.7949 9.25 15.25 7.79494 15.25 6C15.25 4.20507 13.7949 2.75 12 2.75Z" fill="#1C1B1F"/>
<path d="M12 9.25C12.4142 9.25 12.75 9.58579 12.75 10V19C12.75 19.4142 12.4142 19.75 12 19.75C11.5858 19.75 11.25 19.4142 11.25 19V10C11.25 9.58579 11.5858 9.25 12 9.25Z" fill="#1C1B1F"/>
<path d="M5.37596 15.584C5.51506 15.3753 5.74924 15.25 6 15.25H8C8.41421 15.25 8.75 15.5858 8.75 16C8.75 16.4142 8.41421 16.75 8 16.75H6.40139L3.40139 21.25H20.5986L17.5986 16.75H16C15.5858 16.75 15.25 16.4142 15.25 16C15.25 15.5858 15.5858 15.25 16 15.25H18C18.2508 15.25 18.4849 15.3753 18.624 15.584L22.624 21.584C22.7775 21.8141 22.7918 22.11 22.6613 22.3539C22.5307 22.5978 22.2766 22.75 22 22.75H2C1.7234 22.75 1.46926 22.5978 1.33875 22.3539C1.20823 22.11 1.22254 21.8141 1.37596 21.584L5.37596 15.584Z" fill="#1C1B1F"/>
</g>
</g>
</svg>
