<svg xmlns="http://www.w3.org/2000/svg" width="60" height="60" viewBox="0 0 60 60" fill="none">
  <path d="M18.125 15C18.125 8.44162 23.4416 3.125 30 3.125C36.5584 3.125 41.875 8.44162 41.875 15C41.875 21.5584 36.5584 26.875 30 26.875C23.4416 26.875 18.125 21.5584 18.125 15ZM30 6.875C25.5127 6.875 21.875 10.5127 21.875 15C21.875 19.4873 25.5127 23.125 30 23.125C34.4873 23.125 38.125 19.4873 38.125 15C38.125 10.5127 34.4873 6.875 30 6.875Z" fill="#FAC11C"/>
  <path d="M30 23.125C31.0355 23.125 31.875 23.9645 31.875 25V47.5C31.875 48.5355 31.0355 49.375 30 49.375C28.9645 49.375 28.125 48.5355 28.125 47.5V25C28.125 23.9645 28.9645 23.125 30 23.125Z" fill="#FAC11C"/>
  <path d="M13.4399 38.9599C13.7877 38.4383 14.3731 38.125 15 38.125H20C21.0355 38.125 21.875 38.9645 21.875 40C21.875 41.0355 21.0355 41.875 20 41.875H16.0035L8.50347 53.125H51.4965L43.9965 41.875H40C38.9645 41.875 38.125 41.0355 38.125 40C38.125 38.9645 38.9645 38.125 40 38.125H45C45.6269 38.125 46.2123 38.4383 46.5601 38.9599L56.5601 53.9599C56.9437 54.5353 56.9794 55.2751 56.6531 55.8847C56.3269 56.4944 55.6915 56.875 55 56.875H5C4.30851 56.875 3.67315 56.4944 3.34686 55.8847C3.02058 55.2751 3.05634 54.5353 3.43991 53.9599L13.4399 38.9599Z" fill="#FAC11C"/>
</svg>